<svg xmlns="http://www.w3.org/2000/svg" xmlns:xlink="http://www.w3.org/1999/xlink">
  <symbol id="icon-youtube" viewBox="0 0 310 310">
    <path id="XMLID_823_" d="M297.917,64.645c-11.19-13.302-31.85-18.728-71.306-18.728H83.386c-40.359,0-61.369,5.776-72.517,19.938
		C0,79.663,0,100.008,0,128.166v53.669c0,54.551,12.896,82.248,83.386,82.248h143.226c34.216,0,53.176-4.788,65.442-16.527
		C304.633,235.518,310,215.863,310,181.835v-53.669C310,98.471,309.159,78.006,297.917,64.645z M199.021,162.41l-65.038,33.991
		c-1.454,0.76-3.044,1.137-4.632,1.137c-1.798,0-3.592-0.484-5.181-1.446c-2.992-1.813-4.819-5.056-4.819-8.554v-67.764
		c0-3.492,1.822-6.732,4.808-8.546c2.987-1.814,6.702-1.938,9.801-0.328l65.038,33.772c3.309,1.718,5.387,5.134,5.392,8.861
		C204.394,157.263,202.325,160.684,199.021,162.41z"/>
  </symbol>

  <symbol id="icon-twitter" viewBox="0 0 310 310">
    <path id="XMLID_827_" d="M302.973,57.388c-4.87,2.16-9.877,3.983-14.993,5.463c6.057-6.85,10.675-14.91,13.494-23.73
		c0.632-1.977-0.023-4.141-1.648-5.434c-1.623-1.294-3.878-1.449-5.665-0.39c-10.865,6.444-22.587,11.075-34.878,13.783
		c-12.381-12.098-29.197-18.983-46.581-18.983c-36.695,0-66.549,29.853-66.549,66.547c0,2.89,0.183,5.764,0.545,8.598
		C101.163,99.244,58.83,76.863,29.76,41.204c-1.036-1.271-2.632-1.956-4.266-1.825c-1.635,0.128-3.104,1.05-3.93,2.467
		c-5.896,10.117-9.013,21.688-9.013,33.461c0,16.035,5.725,31.249,15.838,43.137c-3.075-1.065-6.059-2.396-8.907-3.977
		c-1.529-0.851-3.395-0.838-4.914,0.033c-1.52,0.871-2.473,2.473-2.513,4.224c-0.007,0.295-0.007,0.59-0.007,0.889
		c0,23.935,12.882,45.484,32.577,57.229c-1.692-0.169-3.383-0.414-5.063-0.735c-1.732-0.331-3.513,0.276-4.681,1.597
		c-1.17,1.32-1.557,3.16-1.018,4.84c7.29,22.76,26.059,39.501,48.749,44.605c-18.819,11.787-40.34,17.961-62.932,17.961
		c-4.714,0-9.455-0.277-14.095-0.826c-2.305-0.274-4.509,1.087-5.294,3.279c-0.785,2.193,0.047,4.638,2.008,5.895
		c29.023,18.609,62.582,28.445,97.047,28.445c67.754,0,110.139-31.95,133.764-58.753c29.46-33.421,46.356-77.658,46.356-121.367
		c0-1.826-0.028-3.67-0.084-5.508c11.623-8.757,21.63-19.355,29.773-31.536c1.237-1.85,1.103-4.295-0.33-5.998
		C307.394,57.037,305.009,56.486,302.973,57.388z"/>
  </symbol>

  <symbol id="icon-telegram" viewBox="0 0 15 15">
    <path d="M14.9932 1.58221C15.0223 1.40736 14.9567 1.23016 14.8208 1.11645C14.6848 1.00274 14.4988 0.969519 14.3318 1.02914L0.331836 6.02914C0.143209 6.0965 0.0129867 6.26994 0.000913704 6.46987C-0.0111592 6.6698 0.0972469 6.85765 0.276398 6.94722L4.2764 8.94722C4.43688 9.02746 4.62806 9.01556 4.77735 8.91603L8.09775 6.70244L6.10957 9.18766C6.02203 9.29709 5.98442 9.43824 6.00592 9.57672C6.02742 9.7152 6.10605 9.8383 6.22265 9.91603L12.2227 13.916C12.3638 14.0101 12.5431 14.0262 12.6988 13.9588C12.8545 13.8914 12.9653 13.7496 12.9932 13.5822L14.9932 1.58221Z"/>
  </symbol>

  <symbol id="icon-midum" viewBox="0 0 512 512">
    <path d="M511.981,118.509c-0.135-2.956-1.892-5.726-4.565-7.04l-159.24-79.62c-3.776-1.887-8.363-0.64-10.664,2.898
			L229.916,200.282l-55.413-85.891c-0.796-1.235-1.945-2.264-3.259-2.922l-159.24-79.62C6.582,29.138,0,33.218,0,39.268v79.621
			c0,4.581,3.712,8.294,8.294,8.294c4.581,0,8.294-3.712,8.294-8.294V52.687l142.652,71.326v335.32L16.587,388.008V154.277
			c0-4.581-3.712-8.294-8.294-8.294c-4.581,0-8.294,3.712-8.294,8.294v238.857c0,3.142,1.775,6.013,4.585,7.418l159.24,79.62
			c5.427,2.714,12.003-1.375,12.003-7.418V318.087l324.17,162.085c5.427,2.714,12.003-1.375,12.003-7.418V118.888
			C512,118.76,511.987,118.636,511.981,118.509z M175.827,299.541v-152.5l145.239,225.12L175.827,299.541z M495.413,459.335
			l-139.34-69.671l108.576-186.993c2.299-3.961,0.952-9.037-3.009-11.337c-3.96-2.298-9.036-0.953-11.337,3.009L344.094,377.258
			L239.77,215.555L347.383,49.998l144.717,72.359l-26.387,45.446c-2.299,3.961-0.952,9.037,3.009,11.337
			c3.958,2.297,9.035,0.953,11.337-3.009l15.354-26.443V459.335z"/>
  </symbol>

  <symbol id="icon-linkdin" viewBox="0 0 310 310">
    <path id="XMLID_802_" d="M72.16,99.73H9.927c-2.762,0-5,2.239-5,5v199.928c0,2.762,2.238,5,5,5H72.16c2.762,0,5-2.238,5-5V104.73
      C77.16,101.969,74.922,99.73,72.16,99.73z"/>
    <path id="XMLID_803_" d="M41.066,0.341C18.422,0.341,0,18.743,0,41.362C0,63.991,18.422,82.4,41.066,82.4
      c22.626,0,41.033-18.41,41.033-41.038C82.1,18.743,63.692,0.341,41.066,0.341z"/>
    <path id="XMLID_804_" d="M230.454,94.761c-24.995,0-43.472,10.745-54.679,22.954V104.73c0-2.761-2.238-5-5-5h-59.599
      c-2.762,0-5,2.239-5,5v199.928c0,2.762,2.238,5,5,5h62.097c2.762,0,5-2.238,5-5v-98.918c0-33.333,9.054-46.319,32.29-46.319
      c25.306,0,27.317,20.818,27.317,48.034v97.204c0,2.762,2.238,5,5,5H305c2.762,0,5-2.238,5-5V194.995
      C310,145.43,300.549,94.761,230.454,94.761z"/>
  </symbol>

  <symbol id="icon-instagram" viewBox="0 0 490 490">
    <path d="M245,135c-60.654,0-110,49.346-110,110s49.346,110,110,110s110-49.346,110-110S305.654,135,245,135z M245,335
      c-49.626,0-90-40.374-90-90c0-49.626,40.374-90,90-90c49.626,0,90,40.374,90,90C335,294.626,294.626,335,245,335z"/>
    <path d="M355,90c-19.299,0-35,15.701-35,35s15.701,35,35,35s35-15.701,35-35S374.299,90,355,90z M355,140
      c-8.272,0-15-6.729-15-15s6.728-15,15-15c8.272,0,15,6.729,15,15S363.272,140,355,140z"/>
    <path d="M245,175c-38.598,0-70,31.402-70,70c0,38.598,31.402,70,70,70c38.598,0,70-31.402,70-70C315,206.402,283.598,175,245,175
      z M245,295c-27.57,0-50-22.43-50-50s22.43-50,50-50s50,22.43,50,50S272.57,295,245,295z"/>
    <path d="M340,45H150C94.86,45,50,89.86,50,145v195c0,55.14,44.86,100,100,100h190c55.141,0,100-44.86,100-100V145
      C440,89.86,395.141,45,340,45z M420,340c0,44.112-35.888,80-80,80H150c-44.112,0-80-35.888-80-80V145c0-44.112,35.888-80,80-80
      h190c44.112,0,80,35.888,80,80V340z"/>
    <path d="M390,0H100C44.86,0,0,44.86,0,100v290c0,55.14,44.86,100,100,100h290c55.141,0,100-44.86,100-100V100
      C490,44.86,445.141,0,390,0z M470,390c0,44.112-35.888,80-80,80H100c-44.112,0-80-35.888-80-80V100c0-44.112,35.888-80,80-80h290
      c44.112,0,80,35.888,80,80V390z"/>
  </symbol>

  <symbol id="icon-facebook" viewBox="0 0 24 24">
    <path fill="none" d="M0 0h24v24H0z"/>
    <path d="M12 2C6.477 2 2 6.477 2 12c0 4.991 3.657 9.128 8.438 9.879V14.89h-2.54V12h2.54V9.797c0-2.506 1.492-3.89 3.777-3.89 1.094 0 2.238.195 2.238.195v2.46h-1.26c-1.243 0-1.63.771-1.63 1.562V12h2.773l-.443 2.89h-2.33v6.989C18.343 21.129 22 16.99 22 12c0-5.523-4.477-10-10-10z"/>
  </symbol>

  <symbol id="icon-user" viewBox="0 0 512 512">
    <path d="M256,0c-84.83,0-153.6,85.965-153.6,192S171.17,384,256,384s153.6-85.965,153.6-192S340.83,0,256,0z M256,358.4
			c-70.579,0-128-74.65-128-166.4S185.421,25.6,256,25.6S384,100.25,384,192S326.579,358.4,256,358.4z"/>
    <path d="M367.812,361.762c-6.869,6.682-14.182,12.689-21.82,18.099c24.388,11.332,45.781,20.753,64.051,28.732
			c67.797,29.585,76.356,35.439,76.356,52.207c0,11.597-11.418,25.6-25.6,25.6H51.2c-14.182,0-25.6-14.003-25.6-25.6
			c0-16.768,8.559-22.622,76.348-52.207c18.278-7.979,39.671-17.399,64.051-28.732c-7.637-5.41-14.95-11.418-21.82-18.099
			C37.598,410.539,0,417.075,0,460.8C0,486.4,22.921,512,51.2,512h409.6c28.279,0,51.2-25.6,51.2-51.2
			C512,417.075,474.402,410.539,367.812,361.762z"/>
  </symbol>

  <symbol id="icon-notification" viewBox="0 0 36 36">
    <path class="clr-i-solid clr-i-solid-path-1" d="M32.85,28.13l-.34-.3A14.37,14.37,0,0,1,30,24.9a12.63,12.63,0,0,1-1.35-4.81V15.15A10.81,10.81,0,0,0,19.21,4.4V3.11a1.33,1.33,0,1,0-2.67,0V4.42A10.81,10.81,0,0,0,7.21,15.15v4.94A12.63,12.63,0,0,1,5.86,24.9a14.4,14.4,0,0,1-2.47,2.93l-.34.3v2.82H32.85Z"></path><path class="clr-i-solid clr-i-solid-path-2" d="M15.32,32a2.65,2.65,0,0,0,5.25,0Z"></path>
    <rect x="0" y="0" width="36" height="36" fill-opacity="0"/>
  </symbol>

  <symbol id="icon-caret-down" viewBox="0 0 24 24">
    <path d="M6.1018 8C5.02785 8 4.45387 9.2649 5.16108 10.0731L10.6829 16.3838C11.3801 17.1806 12.6197 17.1806 13.3169 16.3838L18.8388 10.0731C19.5459 9.2649 18.972 8 17.898 8H6.1018Z" fill="#212121"/>
  </symbol>

  <symbol id="icon-bank" viewBox="0 0 938.2 938.2">
    <path d="M59.95,938.2H878.25c27.6,0,50-22.4,50-50v-8c0-27.6-22.4-50-50-50H826.95v-371H699.25v371h-68.4v-371h-127.6v371H434.85
			v-371h-127.6v371h-68.4v-371h-127.6v371h-51.3c-27.6,0-50,22.4-50,50v8C9.95,915.8,32.35,938.2,59.95,938.2z"/>
		<path d="M889.149,319.9l-389.1-309c-9-7.3-20-10.9-31-10.9c-11,0-22,3.6-31,10.8L48.15,319.7c-12,9.5-19,23.9-19,39.2v20.3
			c0,27.6,22.4,50,50,50h32.1h127.6h68.4h127.6h68.401h127.6h68.4h127.6h31.5c27.799,0,50.299-22.7,50-50.6l-0.201-20.2
			C907.85,343.4,900.95,329.2,889.149,319.9z"/>
  </symbol>

  <symbol id="icon-bit-coin" viewBox="0 0 24 24">
    <path fill="none" d="M0 0h24v24H0z"/>
    <path d="M12 22C6.477 22 2 17.523 2 12S6.477 2 12 2s10 4.477 10 10-4.477 10-10 10zm-1-6v2h2v-2h1a2.5 2.5 0 0 0 2-4 2.5 2.5 0 0 0-2-4h-1V6h-2v2H8v8h3zm-1-3h4a.5.5 0 1 1 0 1h-4v-1zm0-3h4a.5.5 0 1 1 0 1h-4v-1z"/>
  </symbol>

  <symbol id="icon-play-btn" viewBox="0 0 60 60">
    <path d="M30,0C13.458,0,0,13.458,0,30s13.458,30,30,30s30-13.458,30-30S46.542,0,30,0z M45.563,30.826l-22,15
      C23.394,45.941,23.197,46,23,46c-0.16,0-0.321-0.038-0.467-0.116C22.205,45.711,22,45.371,22,45V15c0-0.371,0.205-0.711,0.533-0.884
      c0.328-0.174,0.724-0.15,1.031,0.058l22,15C45.836,29.36,46,29.669,46,30S45.836,30.64,45.563,30.826z"/>
  </symbol>

   <symbol id="icon-email" viewBox="0 0 490 490">
    <path d="M480,85H10C4.478,85,0,89.478,0,95v300c0,5.522,4.478,10,10,10h470c5.522,0,10-4.478,10-10V95
			C490,89.478,485.522,85,480,85z M443.676,105L245,223.36L46.324,105H443.676z M470,385H20V112.597l150.807,89.842l-107.014,84.72
			l12.414,15.682l112.986-89.447l50.688,30.197C241.459,244.53,243.229,245,245,245s3.541-0.47,5.118-1.409l50.688-30.197
			l112.986,89.447l12.414-15.682L319.193,202.44L470,112.597V385z"/>
  </symbol>

   <symbol id="icon-phone" viewBox="0 0 59.942 59.942">
    <path d="M44.076,37.816c-0.896-0.51-1.831-0.78-2.706-0.78c-1.301,0-2.366,0.596-3.011,1.68c-1.02,1.22-2.285,2.646-2.592,2.867
		c-2.376,1.612-4.236,1.429-6.294-0.629L17.987,29.467c-2.045-2.045-2.233-3.928-0.632-6.291c0.224-0.309,1.65-1.575,2.87-2.596
		c0.778-0.463,1.312-1.151,1.546-1.995c0.311-1.123,0.082-2.444-0.652-3.731c-0.173-0.296-4.291-7.27-8.085-9.277
		c-0.708-0.375-1.506-0.573-2.306-0.573c-1.318,0-2.558,0.514-3.49,1.445L4.7,8.986c-4.014,4.013-5.467,8.562-4.321,13.52
		c0.956,4.132,3.742,8.529,8.282,13.068l14.705,14.705c5.746,5.746,11.224,8.66,16.282,8.66c0,0,0,0,0,0
		c3.721,0,7.188-1.581,10.306-4.698l2.537-2.537c1.541-1.541,1.891-3.87,0.872-5.796C51.356,42.112,44.383,37.996,44.076,37.816z"/>
    <path d="M58.942,38.003c-3.69,0-6.693-3.003-6.693-6.693c0-0.553-0.447-1-1-1s-1,0.447-1,1c0,4.794,3.899,8.693,8.693,8.693
      c0.553,0,1-0.447,1-1S59.495,38.003,58.942,38.003z"/>
    <path d="M58.196,35.662c0.553,0,1-0.447,1-1s-0.447-1-1-1c-0.886,0-1.605-0.72-1.605-1.605c0-0.553-0.447-1-1-1s-1,0.447-1,1
      C54.591,34.044,56.208,35.662,58.196,35.662z"/>
    <path d="M19.942,3.003c3.691,0,6.693,3.003,6.693,6.693c0,0.553,0.448,1,1,1s1-0.447,1-1c0-4.794-3.9-8.693-8.693-8.693
      c-0.552,0-1,0.447-1,1S19.39,3.003,19.942,3.003z"/>
    <path d="M19.689,6.345c0,0.553,0.448,1,1,1c0.885,0,1.604,0.72,1.604,1.605c0,0.553,0.448,1,1,1s1-0.447,1-1
		c0-1.988-1.617-3.605-3.604-3.605C20.137,5.345,19.689,5.792,19.689,6.345z"/>
  </symbol>

   <symbol id="icon-close" viewBox="0 0 15 15">
     <path d="M11.7816 4.03157C12.0062 3.80702 12.0062 3.44295 11.7816 3.2184C11.5571 2.99385 11.193 2.99385 10.9685 3.2184L7.50005 6.68682L4.03164 3.2184C3.80708 2.99385 3.44301 2.99385 3.21846 3.2184C2.99391 3.44295 2.99391 3.80702 3.21846 4.03157L6.68688 7.49999L3.21846 10.9684C2.99391 11.193 2.99391 11.557 3.21846 11.7816C3.44301 12.0061 3.80708 12.0061 4.03164 11.7816L7.50005 8.31316L10.9685 11.7816C11.193 12.0061 11.5571 12.0061 11.7816 11.7816C12.0062 11.557 12.0062 11.193 11.7816 10.9684L8.31322 7.49999L11.7816 4.03157Z"
    fill="currentColor"/>
  </symbol>
</svg>